<mxfile host="Electron" agent="Mozilla/5.0 (X11; Linux x86_64) AppleWebKit/537.36 (KHTML, like Gecko) draw.io/28.2.5 Chrome/138.0.7204.251 Electron/37.6.1 Safari/537.36" version="28.2.5">
  <diagram name="Página-1" id="TBwmZ1FARAIdtemueGwF">
    <mxGraphModel dx="2187" dy="843" grid="1" gridSize="10" guides="1" tooltips="1" connect="1" arrows="1" fold="1" page="1" pageScale="1" pageWidth="827" pageHeight="1169" math="0" shadow="0">
      <root>
        <mxCell id="0" />
        <mxCell id="1" parent="0" />
        <mxCell id="lAbK5s3AaWWvYVxn1XXE-6" value="Patient" style="swimlane;whiteSpace=wrap;html=1;" vertex="1" parent="1">
          <mxGeometry x="314" width="266" height="280" as="geometry" />
        </mxCell>
        <mxCell id="lAbK5s3AaWWvYVxn1XXE-8" value=" ID&#xa;&#xa; Document&#xa;&#xa; Name&#xa;&#xa;  Age&#xa;&#xa; Telephone&#xa;&#xa;  Email" style="text;whiteSpace=wrap;" vertex="1" parent="lAbK5s3AaWWvYVxn1XXE-6">
          <mxGeometry y="20" width="80" height="190" as="geometry" />
        </mxCell>
        <mxCell id="lAbK5s3AaWWvYVxn1XXE-20" value="&lt;b&gt;Relationships&lt;/b&gt;" style="text;html=1;align=center;verticalAlign=middle;resizable=0;points=[];autosize=1;strokeColor=none;fillColor=none;" vertex="1" parent="lAbK5s3AaWWvYVxn1XXE-6">
          <mxGeometry y="200" width="100" height="30" as="geometry" />
        </mxCell>
        <mxCell id="lAbK5s3AaWWvYVxn1XXE-24" value="&lt;code&gt;ICollection&amp;lt;Appointment&amp;gt;&lt;/code&gt; (Appointments)" style="text;whiteSpace=wrap;html=1;" vertex="1" parent="lAbK5s3AaWWvYVxn1XXE-6">
          <mxGeometry x="6" y="230" width="260" height="40" as="geometry" />
        </mxCell>
        <mxCell id="lAbK5s3AaWWvYVxn1XXE-10" value="Doctor" style="swimlane;whiteSpace=wrap;html=1;startSize=23;" vertex="1" parent="1">
          <mxGeometry x="700" y="160" width="280" height="300" as="geometry" />
        </mxCell>
        <mxCell id="lAbK5s3AaWWvYVxn1XXE-11" value=" ID&#xa;&#xa; Document&#xa;&#xa; Name&#xa;&#xa;Specialty&#xa;&#xa;Telephone&#xa;&#xa; Email" style="text;whiteSpace=wrap;" vertex="1" parent="lAbK5s3AaWWvYVxn1XXE-10">
          <mxGeometry y="30" width="100" height="170" as="geometry" />
        </mxCell>
        <mxCell id="lAbK5s3AaWWvYVxn1XXE-23" value="&lt;b&gt;Relationships&lt;/b&gt;" style="text;html=1;align=center;verticalAlign=middle;resizable=0;points=[];autosize=1;strokeColor=none;fillColor=none;" vertex="1" parent="lAbK5s3AaWWvYVxn1XXE-10">
          <mxGeometry y="200" width="100" height="30" as="geometry" />
        </mxCell>
        <mxCell id="lAbK5s3AaWWvYVxn1XXE-26" value="&lt;code&gt;ICollection&amp;lt;Appointment&amp;gt;&lt;/code&gt; (Appointments)" style="text;whiteSpace=wrap;html=1;" vertex="1" parent="lAbK5s3AaWWvYVxn1XXE-10">
          <mxGeometry y="240" width="260" height="40" as="geometry" />
        </mxCell>
        <mxCell id="lAbK5s3AaWWvYVxn1XXE-15" value="Medical Appointment" style="swimlane;whiteSpace=wrap;html=1;" vertex="1" parent="1">
          <mxGeometry x="-40" y="160" width="280" height="340" as="geometry" />
        </mxCell>
        <mxCell id="lAbK5s3AaWWvYVxn1XXE-13" value="ID&#xa;&#xa;&#xa;Patient ID&#xa;&#xa;&#xa;Doctor ID&#xa;&#xa;&#xa;Date Time&#xa;&#xa;&#xa;Status" style="text;whiteSpace=wrap;" vertex="1" parent="lAbK5s3AaWWvYVxn1XXE-15">
          <mxGeometry y="20" width="140" height="220" as="geometry" />
        </mxCell>
        <mxCell id="lAbK5s3AaWWvYVxn1XXE-21" value="&lt;b&gt;Relationships&lt;/b&gt;" style="text;html=1;align=center;verticalAlign=middle;resizable=0;points=[];autosize=1;strokeColor=none;fillColor=none;" vertex="1" parent="lAbK5s3AaWWvYVxn1XXE-15">
          <mxGeometry x="-10" y="240" width="100" height="30" as="geometry" />
        </mxCell>
        <mxCell id="lAbK5s3AaWWvYVxn1XXE-25" value="&lt;code&gt;Patient&lt;/code&gt;, &lt;code&gt;Doctor&lt;/code&gt;, &lt;code&gt;ICollection&amp;lt;EmailHistory&amp;gt;&lt;/code&gt; (EmailLogs)" style="text;whiteSpace=wrap;html=1;" vertex="1" parent="lAbK5s3AaWWvYVxn1XXE-15">
          <mxGeometry y="280" width="280" height="40" as="geometry" />
        </mxCell>
        <mxCell id="lAbK5s3AaWWvYVxn1XXE-18" value="Email History" style="swimlane;whiteSpace=wrap;html=1;" vertex="1" parent="1">
          <mxGeometry x="360" y="320" width="200" height="410" as="geometry" />
        </mxCell>
        <mxCell id="lAbK5s3AaWWvYVxn1XXE-19" value="ID&#xa;&#xa;&#xa;Appointment ID&#xa;&#xa;&#xa;Recipient&#xa;&#xa;&#xa;Subject&#xa;&#xa;&#xa;Content&#xa;&#xa;&#xa;Date Sent&#xa;&#xa;&#xa;Status Sent" style="text;whiteSpace=wrap;" vertex="1" parent="lAbK5s3AaWWvYVxn1XXE-18">
          <mxGeometry y="20" width="120" height="310" as="geometry" />
        </mxCell>
        <mxCell id="lAbK5s3AaWWvYVxn1XXE-22" value="&lt;b&gt;Relationships&lt;/b&gt;" style="text;html=1;align=center;verticalAlign=middle;resizable=0;points=[];autosize=1;strokeColor=none;fillColor=none;" vertex="1" parent="lAbK5s3AaWWvYVxn1XXE-18">
          <mxGeometry y="320" width="100" height="30" as="geometry" />
        </mxCell>
        <mxCell id="lAbK5s3AaWWvYVxn1XXE-27" value="Appointment" style="text;whiteSpace=wrap;html=1;" vertex="1" parent="lAbK5s3AaWWvYVxn1XXE-18">
          <mxGeometry y="350" width="100" height="40" as="geometry" />
        </mxCell>
      </root>
    </mxGraphModel>
  </diagram>
</mxfile>
